<mxfile host="app.diagrams.net" modified="2020-08-02T08:09:15.047Z" agent="5.0 (X11; Linux x86_64) AppleWebKit/537.36 (KHTML, like Gecko) Chrome/83.0.4103.116 Safari/537.36" etag="gtTCagR4X5DYPKCMlIfz" version="13.5.8" type="github">
  <diagram name="Page-1" id="42789a77-a242-8287-6e28-9cd8cfd52e62">
    <mxGraphModel dx="1182" dy="741" grid="1" gridSize="10" guides="1" tooltips="1" connect="1" arrows="1" fold="1" page="1" pageScale="1" pageWidth="1100" pageHeight="850" background="#ffffff" math="0" shadow="0">
      <root>
        <mxCell id="0" />
        <mxCell id="1" parent="0" />
        <UserObject label="&lt;span style=&quot;background-color: rgb(213 , 232 , 212)&quot;&gt;Inicialización&lt;/span&gt;" treeRoot="1" id="gyqQcKkjxpdTyR154-rd-6">
          <mxCell style="whiteSpace=wrap;html=1;align=center;treeFolding=1;treeMoving=1;newEdgeStyle={&quot;edgeStyle&quot;:&quot;elbowEdgeStyle&quot;,&quot;startArrow&quot;:&quot;none&quot;,&quot;endArrow&quot;:&quot;none&quot;};fillColor=#d5e8d4;strokeColor=#82b366;" vertex="1" collapsed="1" parent="1">
            <mxGeometry x="435" y="170" width="115" height="60" as="geometry" />
          </mxCell>
        </UserObject>
        <mxCell id="gyqQcKkjxpdTyR154-rd-14" value="" style="html=1;whiteSpace=wrap;aspect=fixed;shape=isoRectangle;" vertex="1" parent="1">
          <mxGeometry x="461.66" y="250" width="66.67" height="40" as="geometry" />
        </mxCell>
        <mxCell id="gyqQcKkjxpdTyR154-rd-16" value="" style="endArrow=none;html=1;" edge="1" parent="1" source="gyqQcKkjxpdTyR154-rd-14" target="gyqQcKkjxpdTyR154-rd-6">
          <mxGeometry width="50" height="50" relative="1" as="geometry">
            <mxPoint x="230" y="390" as="sourcePoint" />
            <mxPoint x="280" y="340" as="targetPoint" />
          </mxGeometry>
        </mxCell>
        <mxCell id="gyqQcKkjxpdTyR154-rd-18" value="failed" style="ellipse;whiteSpace=wrap;html=1;rounded=0;shadow=1;comic=0;labelBackgroundColor=none;strokeWidth=1;fontFamily=Verdana;fontSize=12;align=center;fillColor=#fff2cc;strokeColor=#d6b656;" vertex="1" parent="1">
          <mxGeometry x="390" y="300" width="60" height="60" as="geometry" />
        </mxCell>
        <mxCell id="gyqQcKkjxpdTyR154-rd-19" value="" style="endArrow=none;html=1;entryX=0.485;entryY=0.9;entryDx=0;entryDy=0;entryPerimeter=0;" edge="1" parent="1" source="gyqQcKkjxpdTyR154-rd-18" target="gyqQcKkjxpdTyR154-rd-14">
          <mxGeometry width="50" height="50" relative="1" as="geometry">
            <mxPoint x="520" y="460" as="sourcePoint" />
            <mxPoint x="570" y="410" as="targetPoint" />
          </mxGeometry>
        </mxCell>
        <mxCell id="gyqQcKkjxpdTyR154-rd-20" value="succeed" style="ellipse;whiteSpace=wrap;html=1;rounded=0;shadow=1;comic=0;labelBackgroundColor=none;strokeWidth=1;fontFamily=Verdana;fontSize=12;align=center;fillColor=#fff2cc;strokeColor=#d6b656;" vertex="1" parent="1">
          <mxGeometry x="550" y="300" width="60" height="60" as="geometry" />
        </mxCell>
        <mxCell id="gyqQcKkjxpdTyR154-rd-21" value="" style="endArrow=none;html=1;entryX=0.575;entryY=0.95;entryDx=0;entryDy=0;entryPerimeter=0;" edge="1" parent="1" source="gyqQcKkjxpdTyR154-rd-20" target="gyqQcKkjxpdTyR154-rd-14">
          <mxGeometry width="50" height="50" relative="1" as="geometry">
            <mxPoint x="530" y="350" as="sourcePoint" />
            <mxPoint x="503.99495" y="296" as="targetPoint" />
          </mxGeometry>
        </mxCell>
        <mxCell id="gyqQcKkjxpdTyR154-rd-22" value="" style="html=1;whiteSpace=wrap;aspect=fixed;shape=isoRectangle;" vertex="1" parent="1">
          <mxGeometry x="686.67" y="370" width="66.67" height="40" as="geometry" />
        </mxCell>
        <mxCell id="gyqQcKkjxpdTyR154-rd-23" value="" style="endArrow=none;html=1;" edge="1" parent="1" source="gyqQcKkjxpdTyR154-rd-24" target="gyqQcKkjxpdTyR154-rd-22">
          <mxGeometry width="50" height="50" relative="1" as="geometry">
            <mxPoint x="520" y="460" as="sourcePoint" />
            <mxPoint x="570" y="410" as="targetPoint" />
          </mxGeometry>
        </mxCell>
        <UserObject label="&lt;span style=&quot;background-color: rgb(213 , 232 , 212)&quot;&gt;AUtenticación&lt;/span&gt;" treeRoot="1" id="gyqQcKkjxpdTyR154-rd-24">
          <mxCell style="whiteSpace=wrap;html=1;align=center;treeFolding=1;treeMoving=1;newEdgeStyle={&quot;edgeStyle&quot;:&quot;elbowEdgeStyle&quot;,&quot;startArrow&quot;:&quot;none&quot;,&quot;endArrow&quot;:&quot;none&quot;};fillColor=#d5e8d4;strokeColor=#82b366;" vertex="1" collapsed="1" parent="1">
            <mxGeometry x="660" y="300" width="120" height="60" as="geometry" />
          </mxCell>
        </UserObject>
        <mxCell id="gyqQcKkjxpdTyR154-rd-25" value="" style="endArrow=none;html=1;" edge="1" parent="1" source="gyqQcKkjxpdTyR154-rd-20" target="gyqQcKkjxpdTyR154-rd-24">
          <mxGeometry width="50" height="50" relative="1" as="geometry">
            <mxPoint x="520" y="460" as="sourcePoint" />
            <mxPoint x="570" y="410" as="targetPoint" />
          </mxGeometry>
        </mxCell>
      </root>
    </mxGraphModel>
  </diagram>
</mxfile>
